<svg width="146" height="30" viewBox="0 0 146 30" fill="none" xmlns="http://www.w3.org/2000/svg">
<g clip-path="url(#clip0_112_414)">
<path d="M0.427063 19.199V27.7324C0.427063 28.2333 0.833167 28.6394 1.33412 28.6394H3.47789C3.97884 28.6394 4.38495 28.2333 4.38495 27.7324L4.38496 19.199L15.5978 19.1393V15.6153H4.38496V6.33902C4.38496 4.47549 5.10896 3.66319 7.0879 3.66319H28.5993V1.54724C28.5993 1.00931 28.1632 0.573242 27.6253 0.573242H6.84656C2.26121 0.573242 0.427073 2.13414 0.427073 6.43459V15.6153L0.427063 19.199Z" fill="white"/>
<path d="M19.9188 27.7324C19.9188 28.2333 19.5127 28.6394 19.0118 28.6394H16.5048C16.0039 28.6394 15.5978 28.2333 15.5978 27.7324V15.6153H17.9708C19.0467 15.6153 19.9188 16.4875 19.9188 17.5633V27.7324Z" fill="white"/>
<path d="M24.6414 27.7722C24.6414 28.2731 25.0475 28.6792 25.5484 28.6792H27.6922C28.1932 28.6792 28.5993 28.2731 28.5993 27.7722V2.79147H24.6414V27.7722Z" fill="white"/>
</g>
<path d="M44.8971 29.1724V16.4058H57.6112V12.9828H44.8971V3.56949H59.9339V0.146484H41.0259V29.1724H44.8971Z" fill="white"/>
<path d="M63.582 4.38449H67.5755V0.146484H63.582V4.38449ZM67.4125 8.09275H63.745V29.1724H67.4125V8.09275Z" fill="white"/>
<path d="M77.2021 0.146484H73.5346V29.1724H77.2021V0.146484Z" fill="white"/>
<path d="M91.1482 29.8533C94.1229 29.8533 96.4864 28.427 97.7497 26.308V29.1724H101.417V0.146484H97.7497V11.1898C96.4864 9.1115 94.1229 7.68525 91.1482 7.68525C85.2394 7.68525 81.8571 12.6975 81.8571 18.7693C81.8571 24.8003 85.2394 29.8533 91.1482 29.8533ZM97.8312 18.0358V19.5435C97.8312 24.4335 94.8157 26.634 91.8002 26.634C87.8066 26.634 85.5654 23.3333 85.5654 18.7693C85.5654 14.1645 87.8066 10.9045 91.8002 10.9045C94.8157 10.9045 97.8312 13.0643 97.8312 18.0358Z" fill="white"/>
<path d="M115.996 29.8533C120.234 29.8533 123.454 27.5305 124.758 23.7408L121.538 22.5998C120.886 25.1263 118.849 26.6748 115.996 26.6748C112.288 26.6748 109.721 23.8223 109.517 19.3398H124.921V18.1173C124.921 12.2085 121.783 7.68525 115.833 7.68525C110.047 7.68525 106.013 12.4123 106.013 18.7693C106.013 25.33 110.088 29.8533 115.996 29.8533ZM115.793 10.823C119.501 10.823 121.131 13.5125 121.212 16.528H109.721C110.373 12.9013 112.696 10.823 115.793 10.823Z" fill="white"/>
<path d="M141.709 29.1724H145.866L138.065 18.2803L145.196 8.09275H141.162L135.946 15.55L130.811 8.09275H126.614L133.745 18.2803L125.924 29.1724H129.918L135.824 21.0105L141.709 29.1724Z" fill="white"/>
<defs>
<clipPath id="clip0_112_414">
<rect width="29.0259" height="29.0259" fill="white" transform="translate(0 0.146484)"/>
</clipPath>
</defs>
</svg>
