<svg width="120" height="120" viewBox="0 0 120 120" fill="none" xmlns="http://www.w3.org/2000/svg">
<path d="M60 0C93.1401 0 120 26.8653 120 60C120 93.1401 93.1401 120 60 120C26.8653 120 0 93.1374 0 60C0 26.8653 26.8653 0 60 0Z" fill="#F5AC37"/>
<path fill-rule="evenodd" clip-rule="evenodd" d="M55.302 87.9407V88.0435L55.2971 88.0473V88.0646H67.2405C68.5923 88.0832 69.9391 87.9754 71.2674 87.7375C72.6663 87.4637 74.0293 87.0325 75.3291 86.4476C75.8927 86.1866 76.4334 85.8711 76.9789 85.5528C77.117 85.4723 77.2554 85.3915 77.3946 85.3114C78.0364 84.8542 78.651 84.3586 79.2359 83.8319C80.8367 82.3847 82.0758 80.5794 82.8502 78.5659C82.9023 78.3404 83.1228 78.1954 83.3496 78.2388H86.6021C86.8611 78.2388 86.9466 78.1521 86.9466 77.8596V75.7768C86.9639 75.5773 86.9639 75.3753 86.9466 75.1758C86.9466 75.1237 86.96 75.0717 86.9734 75.0198C87 74.9163 87.0266 74.8131 86.9466 74.7099H84.2293C83.901 74.7099 83.901 74.6752 83.901 74.3828C83.9951 73.3346 83.9951 72.2826 83.901 71.2344C83.8836 70.9246 83.953 70.9246 84.1934 70.9246H86.5687C86.845 70.9246 86.9478 70.8552 86.9478 70.5801V67.7575C86.9393 67.5706 86.9349 67.4758 86.8853 67.4277C86.8344 67.3784 86.7356 67.3784 86.5352 67.3784H83.4549C83.2145 67.4193 82.984 67.2569 82.9407 67.0166C82.5875 66.0935 82.1378 65.21 81.5963 64.3835C81.0511 63.5682 80.4365 62.8025 79.755 62.095C78.8493 61.1905 77.832 60.4049 76.7268 59.7544C75.0602 58.7867 73.2375 58.1089 71.3405 57.7583C70.4199 57.5885 69.4894 57.4857 68.5526 57.4485H55.6465C55.302 57.4485 55.302 57.5179 55.302 57.7929V67.0686C55.302 67.3957 55.2327 67.3957 54.9749 67.3957H51.2751C51 67.3957 51 67.4465 51 67.6361V70.6644C51 70.9395 51.0855 70.9395 51.2924 70.9395H55.027C55.302 70.9395 55.302 70.9903 55.302 71.1972V74.4324C55.302 74.7248 55.2153 74.7248 54.9923 74.7248H51V77.9947C51 78.2698 51.0855 78.2698 51.2924 78.2698H55.027C55.302 78.2698 55.302 78.3032 55.302 78.5275V82.5718V83.9311V87.9407ZM79.0684 67.1009C79.0982 67.1777 79.0982 67.2632 79.0684 67.3413H79.1515C79.1168 67.4441 78.9445 67.4788 78.9445 67.4788H59.086C58.7589 67.4788 58.7589 67.4094 58.7589 67.1517V61.0431C58.7589 60.8188 58.7936 60.716 59.0513 60.716H68.2923C69.2761 60.7073 70.2574 60.8102 71.2177 61.0258C73.1209 61.4768 74.8915 62.3739 76.3809 63.6414C76.6783 63.8632 76.9434 64.1247 77.1727 64.4158C77.6584 64.8978 78.0846 65.4344 78.4464 66.0167C78.6868 66.3575 78.8937 66.7205 79.0684 67.1009ZM79.8922 74.7061H69.4296H59.1726C58.9633 74.7061 58.8602 74.7061 58.8093 74.6546C58.7599 74.6045 58.7599 74.5057 58.7599 74.3109V71.2479C58.7599 71.0063 58.8293 70.9208 59.0871 70.9208H79.9096C80.1339 70.9208 80.2367 71.0063 80.2367 71.2132C80.3222 72.2788 80.3222 73.3494 80.2367 74.4137C80.2206 74.7061 80.1153 74.7061 79.8922 74.7061ZM79.0683 78.2859C78.7758 78.2537 78.4809 78.2537 78.1885 78.2859H59.1044C58.8467 78.2859 58.7599 78.2859 58.7599 78.6304V84.6027C58.7599 84.8778 58.7599 84.9472 59.1044 84.9472H67.9154C68.3367 84.9794 68.758 84.9497 69.1706 84.8617C70.4493 84.77 71.707 84.4924 72.9064 84.0352C73.3425 83.8841 73.7638 83.687 74.1616 83.4504H74.2817C76.3473 82.3761 78.025 80.6885 79.0831 78.6168C79.0831 78.6168 79.2033 78.3566 79.0683 78.2884V78.2859Z" fill="#FEFEFD"/>
<path d="M36.473 49.2304H26V42.9478H36.473C36.473 42.7757 36.473 42.6331 36.473 42.4904C36.4999 40.6568 36.4543 38.8216 36.569 36.9912C36.7896 33.4765 37.6873 30.1648 39.7953 27.2754C42.0025 24.2499 45.0448 22.519 48.6259 21.6548C51.5436 20.952 54.5012 20.8803 57.4776 21.1338C60.5592 21.4023 63.5882 22.1009 66.4767 23.2095C66.6394 23.2715 66.8022 23.3408 67 23.4215L65.229 29.0943C64.809 28.9313 64.4151 28.7682 64.0139 28.6198C60.1951 27.1955 56.2535 26.8262 52.2492 27.4507C47.6915 28.1592 44.9398 31.038 44.1918 35.6158C43.9216 37.2766 43.9436 38.9439 43.9428 40.6144C43.9428 41.3718 43.9428 42.13 43.9428 42.9282H62.4944V49.1921H43.9737V88H36.473V49.2304Z" fill="white"/>
</svg>
