<svg width="290" height="61" viewBox="0 0 290 61" fill="none" xmlns="http://www.w3.org/2000/svg">
<path d="M0 6.38551C0 2.85889 2.85889 0 6.38551 0H53.8581V8.51401H62.3721V60.7147H53.8581V8.51401H8.51401V32.8348H29.7011V41.3488H38.2151V60.7147H29.7011V41.3488H8.51401V60.7147H0V6.38551Z" fill="white"/>
<path d="M81.9759 59.6018V33.3868H108.17V26.358H81.9759V7.02881H112.956V0H74V59.6018H81.9759Z" fill="white"/>
<path d="M120.472 8.70233H128.7V0H120.472V8.70233ZM128.364 16.3169H120.808V59.6018H128.364V16.3169Z" fill="white"/>
<path d="M148.533 0H140.977V59.6018H148.533V0Z" fill="white"/>
<path d="M177.266 61C183.395 61 188.264 58.0713 190.867 53.7202V59.6018H198.423V0H190.867V22.6763C188.264 18.4088 183.395 15.4801 177.266 15.4801C165.092 15.4801 158.124 25.7723 158.124 38.2401C158.124 50.6241 165.092 61 177.266 61ZM191.035 36.7339V39.8299C191.035 49.8711 184.822 54.3896 178.609 54.3896C170.381 54.3896 165.764 47.6118 165.764 38.2401C165.764 28.7846 170.381 22.0905 178.609 22.0905C184.822 22.0905 191.035 26.5254 191.035 36.7339Z" fill="white"/>
<path d="M228.46 61C237.192 61 243.824 56.2305 246.511 48.4486L239.878 46.1056C238.535 51.2936 234.337 54.4733 228.46 54.4733C220.82 54.4733 215.531 48.6159 215.111 39.4115H246.847V36.9012C246.847 24.7682 240.382 15.4801 228.125 15.4801C216.203 15.4801 207.891 25.1866 207.891 38.2401C207.891 51.7119 216.287 61 228.46 61ZM228.041 21.9232C235.681 21.9232 239.039 27.4458 239.207 33.6379H215.531C216.874 26.1907 221.66 21.9232 228.041 21.9232Z" fill="white"/>
<path d="M281.436 59.6018H290L273.927 37.2359L288.62 16.3169H280.308L269.562 31.6296L258.983 16.3169H250.336L265.028 37.2359L248.914 59.6018H257.142L269.31 42.8423L281.436 59.6018Z" fill="white"/>
</svg>
