<svg width="120" height="120" viewBox="0 0 120 120" fill="none" xmlns="http://www.w3.org/2000/svg">
<path d="M60 120C93.2502 120 120 93.2502 120 60C120 26.7498 93.2502 0 60 0C26.7498 0 0 26.7498 0 60C0 93.2502 26.7498 120 60 120Z" fill="#2775CA"/>
<path d="M83 75.4812C83 69.0914 79.2388 66.9005 71.7163 65.9878C66.3432 65.2573 65.2686 63.7969 65.2686 61.2406C65.2686 58.6843 67.0597 57.0416 70.6417 57.0416C73.8656 57.0416 75.6568 58.137 76.5522 60.8756C76.7314 61.4233 77.2688 61.7883 77.8061 61.7883H80.6715C81.388 61.7883 81.9254 61.2406 81.9254 60.5106V60.3279C81.2088 56.3112 77.9849 53.2076 73.8656 52.8426V48.4609C73.8656 47.7304 73.3283 47.1827 72.4329 47H69.7463C69.0298 47 68.4925 47.5477 68.3132 48.4609V52.6599C62.94 53.3903 59.5373 57.0416 59.5373 61.6061C59.5373 67.6309 63.1193 70.0041 70.6417 70.9172C75.6568 71.8299 77.2688 72.9254 77.2688 75.8467C77.2688 78.768 74.761 80.7761 71.3583 80.7761C66.7013 80.7761 65.0893 78.7675 64.552 76.0289C64.3732 75.299 63.8358 74.9335 63.2985 74.9335H60.2535C59.5373 74.9335 59 75.4812 59 76.2117V76.3944C59.7161 80.9584 62.582 84.2447 68.4924 85.1578V89.5396C68.4924 90.2696 69.0298 90.8173 69.9252 91H72.6117C73.3283 91 73.8656 90.4523 74.0449 89.5396V85.1578C79.418 84.2447 83 80.4107 83 75.4812V75.4812Z" fill="white"/>
<path d="M37.473 53.2304H27V46.9478H37.473C37.473 46.7757 37.473 46.6331 37.473 46.4904C37.4999 44.6568 37.4543 42.8216 37.569 40.9912C37.7896 37.4765 38.6873 34.1648 40.7953 31.2754C43.0025 28.2499 46.0448 26.519 49.6259 25.6548C52.5436 24.952 55.5012 24.8803 58.4776 25.1338C61.5592 25.4023 64.5882 26.1009 67.4767 27.2095C67.6394 27.2715 67.8022 27.3408 68 27.4215L66.229 33.0943C65.809 32.9313 65.4151 32.7682 65.0139 32.6198C61.1952 31.1955 57.2535 30.8262 53.2492 31.4507C48.6915 32.1592 45.9398 35.038 45.1918 39.6158C44.9216 41.2766 44.9436 42.9439 44.9428 44.6144C44.9428 45.3718 44.9428 46.13 44.9428 46.9282H61.4944V53.1921H44.9737V92H37.473V53.2304Z" fill="white"/>
</svg>
