<svg width="54" height="54" viewBox="0 0 54 54" fill="none" xmlns="http://www.w3.org/2000/svg">
<path d="M24.165 3.62232C25.6064 1.78067 28.3936 1.78067 29.835 3.62232L31.7053 6.01211C32.6084 7.16602 34.1208 7.65743 35.5297 7.25472L38.4475 6.4207C40.6961 5.77798 42.951 7.41629 43.0346 9.75341L43.1431 12.7862C43.1954 14.2505 44.1301 15.537 45.5066 16.0394L48.3574 17.0797C50.5544 17.8814 51.4157 20.5322 50.1096 22.4721L48.4147 24.9894C47.5963 26.2049 47.5963 27.7951 48.4147 29.0106L50.1096 31.5279C51.4157 33.4678 50.5544 36.1186 48.3574 36.9203L45.5066 37.9606C44.1301 38.463 43.1954 39.7495 43.1431 41.2138L43.0346 44.2466C42.951 46.5837 40.6961 48.222 38.4475 47.5793L35.5297 46.7453C34.1208 46.3426 32.6084 46.834 31.7053 47.9879L29.835 50.3777C28.3936 52.2193 25.6064 52.2193 24.165 50.3777L22.2947 47.9879C21.3916 46.834 19.8792 46.3426 18.4703 46.7453L15.5525 47.5793C13.3039 48.222 11.049 46.5837 10.9654 44.2466L10.8569 41.2138C10.8046 39.7495 9.86987 38.463 8.49336 37.9606L5.64256 36.9203C3.44565 36.1186 2.58434 33.4678 3.89045 31.5279L5.5853 29.0106C6.40367 27.7951 6.40367 26.2049 5.58531 24.9894L3.89045 22.4721C2.58434 20.5322 3.44565 17.8814 5.64256 17.0797L8.49336 16.0394C9.86987 15.537 10.8046 14.2505 10.8569 12.7862L10.9654 9.75341C11.049 7.41629 13.3039 5.77798 15.5525 6.4207L18.4703 7.25472C19.8792 7.65743 21.3916 7.16602 22.2947 6.01211L24.165 3.62232Z" fill="url(#paint0_radial_109_923)"/>
<path d="M24.5588 3.93048C25.7999 2.34462 28.2001 2.34462 29.4412 3.93048L31.3116 6.32027C32.3401 7.63445 34.0625 8.1941 35.6671 7.73547L38.5849 6.90145C40.5212 6.348 42.4629 7.75876 42.5349 9.77128L42.6434 12.804C42.703 14.4718 43.7675 15.937 45.3352 16.5091L48.186 17.5494C50.0778 18.2397 50.8195 20.5224 49.6948 22.1929L47.9999 24.7102C47.0679 26.0945 47.0679 27.9055 47.9999 29.2898L49.6948 31.8071C50.8195 33.4776 50.0778 35.7603 48.186 36.4506L45.3352 37.4909C43.7676 38.063 42.703 39.5282 42.6434 41.196L42.5349 44.2287C42.4629 46.2412 40.5212 47.652 38.5849 47.0986L35.6671 46.2645C34.0625 45.8059 32.3401 46.3655 31.3116 47.6797L29.4412 50.0695C28.2001 51.6554 25.7999 51.6554 24.5588 50.0695L22.6884 47.6797C21.6599 46.3655 19.9375 45.8059 18.3329 46.2645L15.4151 47.0986C13.4788 47.652 11.5371 46.2412 11.4651 44.2287L11.3566 41.196C11.297 39.5282 10.2325 38.063 8.66476 37.4909L5.81396 36.4506C3.92218 35.7603 3.1805 33.4776 4.3052 31.8071L6.00006 29.2898C6.93208 27.9055 6.93208 26.0945 6.00006 24.7102L4.3052 22.1929C3.1805 20.5224 3.92218 18.2397 5.81396 17.5494L8.66476 16.5091C10.2325 15.937 11.297 14.4718 11.3566 12.804L11.4651 9.77128C11.5371 7.75876 13.4788 6.34799 15.4151 6.90145L18.3329 7.73547C19.9375 8.1941 21.6599 7.63445 22.6884 6.32027L24.5588 3.93048Z" stroke="white" stroke-opacity="0.05"/>
<path d="M35 22L24 33L19 28" stroke="white" stroke-width="2" stroke-linecap="square" stroke-linejoin="bevel"/>
<defs>
<radialGradient id="paint0_radial_109_923" cx="0" cy="0" r="1" gradientUnits="userSpaceOnUse" gradientTransform="translate(27 27) rotate(45) scale(38.1838)">
<stop stop-color="#97792C"/>
<stop offset="1" stop-color="#2D2308"/>
</radialGradient>
</defs>
</svg>
