<svg width="19" height="16" viewBox="0 0 19 16" fill="none" xmlns="http://www.w3.org/2000/svg">
<path d="M18.5119 9.31478L17.6335 6.93344C17.5945 6.79674 17.4968 6.69925 17.3798 6.6407C17.2627 6.58216 17.126 6.58216 16.9894 6.62123C16.56 6.7774 16.0915 6.75793 15.6622 6.56269C15.2327 6.36744 14.9204 6.01615 14.7642 5.58673C14.608 5.1573 14.6275 4.68877 14.8228 4.25949C15.018 3.84952 15.3693 3.51773 15.7987 3.36154C15.9354 3.32246 16.0329 3.22484 16.0915 3.10775C16.15 2.99065 16.15 2.85395 16.1109 2.7174L15.2326 0.336054C15.135 0.0627922 14.8422 -0.0542953 14.5885 0.0237153L0.339443 5.21582C0.202742 5.2549 0.105254 5.35252 0.0467105 5.46961C-0.0118366 5.58671 -0.0118365 5.72341 0.0272406 5.85996L0.90557 8.24131C1.00319 8.51457 1.29592 8.63166 1.5497 8.55365C2.44766 8.22184 3.44307 8.69035 3.77489 9.58816C4.1067 10.4861 3.63819 11.4815 2.74037 11.8134C2.46711 11.911 2.3304 12.2037 2.42804 12.4575L3.30637 14.8388C3.38438 15.0535 3.57963 15.1706 3.79435 15.1706C3.85289 15.1706 3.91144 15.1512 3.96999 15.1316L18.219 9.93945C18.3557 9.90038 18.4532 9.80275 18.5117 9.68566C18.551 9.58804 18.5704 9.45135 18.5119 9.31478ZM5.29737 6.7578C5.06318 6.7578 4.86795 6.6211 4.78991 6.3869C4.69229 6.09417 4.82899 5.78184 5.12172 5.68421L11.2703 3.43957C11.563 3.34194 11.8753 3.47865 11.973 3.77138C12.0706 4.06411 11.9339 4.37644 11.6411 4.47407L5.47308 6.71871C5.41453 6.73818 5.35599 6.75778 5.29744 6.75778L5.29737 6.7578ZM6.19519 9.25626C5.961 9.25626 5.76576 9.11956 5.68772 8.88536C5.5901 8.59262 5.7268 8.2803 6.01953 8.18266L12.1681 5.93803C12.4608 5.8404 12.7731 5.9771 12.8708 6.26984C12.9684 6.56257 12.8317 6.8749 12.539 6.97253L6.39041 9.21717C6.33187 9.23664 6.25373 9.25626 6.19519 9.25626ZM13.4368 9.47097L7.28826 11.7156C7.22971 11.7351 7.17117 11.7547 7.09301 11.7547C6.85883 11.7547 6.66359 11.618 6.58555 11.3838C6.48793 11.0911 6.62463 10.7787 6.91736 10.6811L13.0659 8.43646C13.3586 8.33884 13.671 8.47554 13.7686 8.76827C13.8664 9.04153 13.7297 9.37333 13.4369 9.47096L13.4368 9.47097Z" fill="url(#paint0_radial_112_310)"/>
<path d="M18.3763 9.36477L18.3761 9.36484L18.3791 9.3717C18.4177 9.46168 18.4073 9.5548 18.3798 9.6264C18.3353 9.71247 18.2675 9.77534 18.1793 9.80055L18.1792 9.8002L18.1695 9.80371L3.92232 14.9952C3.86031 15.0159 3.82491 15.0262 3.79435 15.0262C3.63323 15.0262 3.49707 14.9406 3.44215 14.7895L3.44191 14.7888L2.56358 12.4075L2.5636 12.4075L2.56287 12.4056C2.49602 12.2318 2.58776 12.0213 2.78898 11.9494L2.78898 11.9494L2.79046 11.9489C3.76177 11.5899 4.27037 10.5122 3.91041 9.53809L3.91041 9.53808C3.55192 8.56814 2.47681 8.05961 1.50377 8.4166C1.31571 8.47254 1.10975 8.38342 1.04162 8.1927L1.04163 8.1927L1.04112 8.19131L0.164745 5.81528C0.133771 5.70379 0.138869 5.60835 0.17593 5.53422L0.0469147 5.46972L0.175931 5.53422C0.220335 5.44541 0.289164 5.38045 0.379151 5.35473L0.379251 5.35508L0.388905 5.35156L14.6342 0.160822C14.8223 0.104746 15.0284 0.193871 15.0965 0.384659L15.0965 0.384661L15.097 0.386048L15.9734 2.76208C16.0044 2.87356 15.9993 2.96901 15.9622 3.04314L16.0915 3.10775L15.9622 3.04314C15.9178 3.13195 15.849 3.19691 15.759 3.22263L15.7589 3.22228L15.7493 3.22577C15.2824 3.3956 14.903 3.75501 14.6923 4.19737L14.6923 4.19736L14.6913 4.19968C14.4807 4.66256 14.459 5.17028 14.6284 5.6361L14.7642 5.58673L14.6284 5.63611C14.7974 6.10059 15.1363 6.48228 15.6024 6.6942C16.0636 6.90396 16.5693 6.92625 17.0337 6.75885C17.1453 6.72775 17.2409 6.73282 17.3151 6.76992C17.404 6.81433 17.4689 6.88316 17.4946 6.97314L17.4942 6.97325L17.498 6.98343L18.3763 9.36477ZM5.29737 6.90227H5.31279L5.31456 6.90189C5.39029 6.89867 5.46112 6.87501 5.51076 6.85844C5.51346 6.85753 5.5161 6.85665 5.51867 6.8558L5.51869 6.85585L5.52249 6.85447L11.6888 4.61047C12.0638 4.48423 12.2299 4.08532 12.11 3.72567C11.9845 3.34935 11.5848 3.18237 11.2246 3.30252L11.2245 3.30246L11.2207 3.30386L5.07398 5.54784C4.69909 5.6741 4.53293 6.07298 4.65286 6.4326C4.75049 6.72556 5.00077 6.90227 5.29737 6.90227ZM12.1224 5.80097L12.1224 5.80092L12.1185 5.80232L5.97181 8.04629C5.5969 8.17255 5.43074 8.57143 5.55067 8.93106C5.64831 9.22402 5.89858 9.40073 6.19519 9.40073C6.27761 9.40073 6.37369 9.37498 6.436 9.35426L6.43602 9.35431L6.43996 9.35288L12.5867 7.1089C12.9616 6.98264 13.1278 6.58376 13.0078 6.22413L12.8708 6.26984L13.0078 6.22413C12.8823 5.84781 12.4826 5.68083 12.1224 5.80097ZM7.33385 11.8527L7.33387 11.8528L7.33781 11.8513L13.4837 9.60766C13.8591 9.48178 14.0265 9.0628 13.9052 8.72107C13.7791 8.3458 13.38 8.17942 13.0202 8.29941L13.0202 8.29935L13.0164 8.30075L6.86963 10.5447C6.49473 10.671 6.32857 11.0699 6.4485 11.4295C6.54613 11.7225 6.79641 11.8992 7.09301 11.8992C7.19431 11.8992 7.27143 11.8735 7.32931 11.8542L7.33385 11.8527Z" stroke="white" stroke-opacity="0.1" stroke-width="0.288944"/>
<defs>
<radialGradient id="paint0_radial_112_310" cx="0" cy="0" r="1" gradientUnits="userSpaceOnUse" gradientTransform="translate(9.27441 7.58532) rotate(45) scale(16.5825 16.2529)">
<stop stop-color="#725918"/>
<stop offset="1" stop-color="#2D2308"/>
</radialGradient>
</defs>
</svg>
