<svg width="120" height="120" viewBox="0 0 120 120" fill="none" xmlns="http://www.w3.org/2000/svg">
<path fill-rule="evenodd" clip-rule="evenodd" d="M60 120C27 120 0 93.0006 0 59.7012C0.3 26.7019 27 -0.297518 60.3 0.00247602C93.3 0.30247 120 27.0019 120 60.6012C119.7 93.3006 93 120 60 120" fill="url(#paint0_linear_602_80)"/>
<path fill-rule="evenodd" clip-rule="evenodd" d="M78.8187 61.2011L78.1726 67.5089L89.2222 68.177L88.6917 71.1522L77.8339 70.4685C77.2719 73.0553 77.1091 75.8052 76.3398 78.2133C75.6019 81.0098 74.8641 83.8064 73.9189 86.4242C72.6534 89.85 70.1593 92.3979 66.5654 93.2757C64.4888 93.8349 62.1734 93.8272 60.3384 92.6075C59.732 92.2657 59.0941 91.5355 59.0469 90.9529C58.9839 90.1761 59.2885 89.174 59.8319 88.739C60.1994 88.5137 61.1734 88.6303 61.7641 88.7779C62.3862 89.3139 63.0241 90.0441 63.4704 90.7898C64.7461 92.2502 66.295 92.3202 67.7337 91.0307C69.3325 89.3372 70.1176 87.1233 70.5193 84.9405C71.2914 80.1864 72.0791 75.6265 72.6595 70.8879L72.5966 70.1111L62.3136 69.3808L62.4608 66.4367L73.127 67.1359L73.9805 61.0069L62.9152 60.1445L63.0466 57.0062L74.4794 57.6433C74.7683 56.447 74.8812 55.4605 75.1858 54.4584C75.8606 50.885 76.5354 47.3117 78.5833 44.018C80.6311 40.7244 83.1566 38.5648 87.1969 38.4328C88.9216 38.293 90.6936 38.7358 91.9537 40.002C92.1611 40.1807 92.5758 40.538 92.6073 40.9264C92.6703 41.7032 92.749 42.6743 92.2213 43.3035C91.502 43.9482 90.528 43.8317 89.6985 43.117C89.0763 42.581 88.6458 42.0295 88.0237 41.4935C86.7479 40.033 85.0074 39.9786 83.7761 41.4468C82.8966 42.4955 82.0486 43.9326 81.5838 45.3386C80.5729 49.5256 79.961 53.8758 78.9659 58.257L89.6321 58.9562L89.1017 61.9314L78.8187 61.2011" fill="white"/>
<path d="M29.8592 74L20.8566 42.1017H27.0712L32.8185 65.5426H33.1144L39.2511 42.1017H44.905L51.0572 65.5582H51.3376L57.0849 42.1017H63.2994L54.2969 74H48.5963L42.2104 51.6182H41.9612L35.5598 74H29.8592Z" fill="white"/>
<defs>
<linearGradient id="paint0_linear_602_80" x1="2" y1="2" x2="110.5" y2="110.5" gradientUnits="userSpaceOnUse">
<stop stop-color="#0090FF"/>
<stop offset="1"/>
</linearGradient>
</defs>
</svg>
